<svg width="1121" height="1030" viewBox="0 0 1121 1030" fill="none" xmlns="http://www.w3.org/2000/svg">
<path d="M915.21 71.0071C911.017 37.2555 880.257 13.2934 846.506 17.4862L71.0071 113.822C37.2555 118.015 13.2934 148.775 17.4861 182.526L113.822 958.025C118.015 991.776 148.775 1015.74 182.526 1011.55L678.239 949.966C717.109 969.758 761.108 980.91 807.665 980.91C965.405 980.91 1093.28 853.036 1093.28 695.295C1093.28 594.805 1041.37 506.453 962.982 455.565L915.21 71.0071Z" fill="white" stroke="white" stroke-width="33.9765"/>
<rect x="43.6787" y="145.346" width="847.289" height="847.289" rx="32.9147" transform="rotate(-7.08124 43.6787 145.346)" fill="white"/>
<rect x="43.6787" y="145.346" width="847.289" height="847.289" rx="32.9147" transform="rotate(-7.08124 43.6787 145.346)" stroke="black" stroke-width="2.12353"/>
<path d="M180.924 983.168C162.303 985.482 145.332 972.261 143.018 953.64L46.6826 178.141C44.3693 159.519 57.5898 142.548 76.2114 140.235L322.769 109.607L427.482 952.54L180.924 983.168Z" stroke="#E3E8E5" stroke-width="21.2353"/>
<rect x="427.482" y="952.54" width="849.412" height="284.553" transform="rotate(-97.0812 427.482 952.54)" stroke="#E3E8E5" stroke-width="21.2353"/>
<path d="M709.865 917.461L605.152 74.5279L851.71 43.8995C870.332 41.5862 887.303 54.8067 889.616 73.4283L985.952 848.927C988.265 867.548 975.044 884.52 956.423 886.833L709.865 917.461Z" stroke="#E3E8E5" stroke-width="21.2353"/>
<rect x="77.5729" y="426.806" width="849.412" height="278.183" transform="rotate(-7.08124 77.5729 426.806)" stroke="#E3E8E5" stroke-width="21.2353"/>
<path d="M112.128 704.974L955.061 600.262L985.952 848.927C988.265 867.548 975.044 884.519 956.423 886.833L180.924 983.168C162.303 985.482 145.332 972.261 143.018 953.64L112.128 704.974Z" stroke="#E3E8E5" stroke-width="21.2353"/>
<path d="M46.6826 178.141C44.3694 159.519 57.5899 142.548 76.2115 140.235L851.71 43.8994C870.332 41.5862 887.303 54.8067 889.616 73.4283L920.506 322.094L77.5729 426.806L46.6826 178.141Z" fill="#176539" stroke="#E3E8E5" stroke-width="21.2353"/>
<path d="M150.59 219.815L134.423 219.208L132.897 206.926L238.479 193.811L245.188 226.77L231.322 228.492L222.349 209.693L179.34 213.226L185.96 266.512L213.42 262.497L214.572 245.86L227.25 244.285L233.205 292.223L220.527 293.798L215.241 277.156L187.633 279.982L194.572 335.843L242.215 327.511L250.554 300.728L265.927 303.043L265.28 339.933L151.379 354.082L149.902 342.197L165.305 338.272L150.59 219.815Z" fill="white"/>
<path d="M498.684 313.151C484.158 314.956 471.218 313.345 459.866 308.318C448.629 303.143 439.607 295.28 432.798 284.727C425.989 274.175 421.707 261.833 419.952 247.703C417.934 231.46 419.306 217.142 424.07 204.75C428.965 192.341 436.788 182.452 447.539 175.082C458.29 167.712 471.325 163.075 486.644 161.172C501.038 159.384 517.47 159.421 535.938 161.284L538.336 198.4L518.329 200.885L509.831 176.194C508.347 175.037 505.69 174.16 501.861 173.563C498.016 172.834 493.122 172.839 487.179 173.577C474.237 175.185 464.725 181.73 458.642 193.214C452.542 204.565 450.723 220.145 453.184 239.954C455.595 259.367 460.717 274.688 468.549 285.918C476.364 297.016 486.743 301.761 499.684 300.154C504.967 299.497 509.837 298.222 514.295 296.327C518.753 294.432 522.039 292.281 524.154 289.873L518.863 247.283L497.62 247.911L495.971 234.639L556.19 227.158L557.839 240.43L547.562 243.517L554.083 296.011C551.326 296.487 546.447 298.233 539.446 301.249C531.273 304.543 524.215 307.096 518.272 308.908C512.477 310.834 505.947 312.249 498.684 313.151Z" fill="white"/>
<path d="M774.105 278.937C766.974 279.823 760.495 280.024 754.669 279.541C748.843 279.058 742.307 278.261 735.062 277.149C730.276 276.403 727.082 276.062 725.481 276.127L722.711 239.259L738.757 237.266L746.289 262.278C748.235 263.914 751.478 265.187 756.016 266.098C760.687 266.993 765.861 267.088 771.54 266.383C780.388 265.283 786.753 262.548 790.635 258.177C794.633 253.658 796.197 247.898 795.328 240.899C794.754 236.277 792.941 232.479 789.89 229.506C786.822 226.4 782.813 223.814 777.863 221.747C772.896 219.548 766.164 217.166 757.665 214.601C746.081 210.945 736.23 206.134 728.114 200.169C720.113 194.056 715.375 185.056 713.898 173.171C712.98 165.776 714.066 158.869 717.157 152.45C720.233 145.9 725.321 140.44 732.421 136.072C739.638 131.555 748.727 128.615 759.688 127.254C766.159 126.45 771.895 126.207 776.896 126.524C782.029 126.825 787.599 127.407 793.606 128.27C797.155 128.768 799.804 129.042 801.553 129.093L804.671 163.906L788.824 165.875L781.637 142.027C780.301 140.986 777.785 140.159 774.088 139.545C770.375 138.799 766.339 138.697 761.981 139.239C754.057 140.223 748.278 142.818 744.644 147.024C741.125 151.082 739.743 156.148 740.498 162.223C741.105 167.109 743.082 171.155 746.43 174.36C749.911 177.548 753.92 180.134 758.457 182.118C762.978 183.97 770.074 186.575 779.744 189.934C787.582 192.58 794.356 195.293 800.065 198.07C805.774 200.847 810.887 204.771 815.406 209.842C819.908 214.781 822.619 220.948 823.538 228.343C824.44 235.606 823.452 242.769 820.575 249.832C817.83 256.877 812.568 263.096 804.789 268.488C797.143 273.863 786.915 277.346 774.105 278.937Z" fill="white"/>
<g filter="url(#filter0_d_3_120)">
<circle cx="809.466" cy="694.313" r="268.627" fill="#0C2E1B"/>
<path d="M757.595 869.948C749.675 869.948 742.476 868.748 735.997 866.348C729.517 863.949 723.697 860.709 718.538 856.629C713.498 852.55 709.119 847.75 705.399 842.23C701.799 836.711 698.739 830.831 696.22 824.592C693.82 818.352 692.02 811.933 690.82 805.333C689.74 798.854 689.2 792.434 689.2 786.075V756.737C689.2 740.778 685.48 729.319 678.041 722.36C670.602 715.4 659.262 711.921 644.024 711.921V675.923C659.262 675.923 670.602 672.444 678.041 665.484C685.48 658.525 689.2 646.946 689.2 630.747V601.409C689.2 595.17 689.68 588.75 690.64 582.151C691.72 575.551 693.4 569.132 695.68 562.892C697.959 556.653 700.839 550.833 704.319 545.434C707.919 539.914 712.238 535.114 717.278 531.035C722.438 526.955 728.317 523.715 734.917 521.315C741.636 518.916 749.195 517.716 757.595 517.716L763.714 545.973C756.395 545.734 750.755 547.293 746.796 550.653C742.836 553.893 739.956 558.213 738.156 563.612C736.356 569.012 735.277 575.071 734.917 581.791C734.677 588.39 734.557 594.93 734.557 601.409V630.747C734.557 645.026 731.017 657.685 723.937 668.724C716.978 679.763 706.119 688.162 691.36 693.922C706.239 699.681 717.158 708.021 724.117 718.94C731.077 729.859 734.557 742.458 734.557 756.737V786.075C734.557 792.554 734.917 799.094 735.637 805.693C736.476 812.413 737.976 818.472 740.136 823.872C742.296 829.271 745.236 833.591 748.955 836.831C752.795 840.191 757.715 841.75 763.714 841.51L757.595 869.948Z" fill="white"/>
<path d="M869.546 841.51C875.426 841.75 880.225 840.191 883.945 836.831C887.785 833.591 890.784 829.271 892.944 823.872C895.104 818.472 896.604 812.413 897.444 805.693C898.284 799.094 898.704 792.554 898.704 786.075V756.737C898.704 749.778 899.484 743.178 901.044 736.939C902.723 730.699 905.243 724.88 908.603 719.48C911.963 714.08 916.162 709.281 921.202 705.081C926.362 700.761 932.481 697.102 939.561 694.102C925.522 688.102 915.203 679.523 908.603 668.364C902.004 657.205 898.704 644.666 898.704 630.747V601.409C898.704 594.93 898.524 588.39 898.164 581.791C897.924 575.071 896.904 569.012 895.104 563.612C893.304 558.213 890.424 553.893 886.465 550.653C882.505 547.293 876.866 545.734 869.546 545.973L875.666 517.716C884.065 517.716 891.564 518.916 898.164 521.315C904.883 523.715 910.763 526.955 915.802 531.035C920.842 535.114 925.162 539.914 928.761 545.434C932.361 550.833 935.301 556.653 937.581 562.892C939.861 569.132 941.48 575.551 942.44 582.151C943.52 588.75 944.06 595.17 944.06 601.409V630.747C944.06 646.946 947.72 658.525 955.039 665.484C962.479 672.444 973.878 675.923 989.237 675.923V711.921C973.878 711.921 962.479 715.4 955.039 722.36C947.72 729.319 944.06 740.778 944.06 756.737V786.075C944.06 792.314 943.46 798.734 942.26 805.333C941.06 811.933 939.261 818.352 936.861 824.592C934.461 830.831 931.401 836.711 927.682 842.23C923.962 847.75 919.582 852.55 914.543 856.629C909.503 860.709 903.743 863.949 897.264 866.348C890.784 868.748 883.585 869.948 875.666 869.948L869.546 841.51Z" fill="white"/>
</g>
<defs>
<filter id="filter0_d_3_120" x="481.38" y="366.227" width="639.183" height="639.183" filterUnits="userSpaceOnUse" color-interpolation-filters="sRGB">
<feFlood flood-opacity="0" result="BackgroundImageFix"/>
<feColorMatrix in="SourceAlpha" type="matrix" values="0 0 0 0 0 0 0 0 0 0 0 0 0 0 0 0 0 0 127 0" result="hardAlpha"/>
<feOffset dx="-8.49412" dy="-8.49412"/>
<feGaussianBlur stdDeviation="25.4824"/>
<feComposite in2="hardAlpha" operator="out"/>
<feColorMatrix type="matrix" values="0 0 0 0 0 0 0 0 0 0 0 0 0 0 0 0 0 0 0.25 0"/>
<feBlend mode="normal" in2="BackgroundImageFix" result="effect1_dropShadow_3_120"/>
<feBlend mode="normal" in="SourceGraphic" in2="effect1_dropShadow_3_120" result="shape"/>
</filter>
</defs>
</svg>
