<?xml version="1.0" standalone="no"?>
<!DOCTYPE svg PUBLIC "-//W3C//DTD SVG 20010904//EN"
 "http://www.w3.org/TR/2001/REC-SVG-20010904/DTD/svg10.dtd">
<svg version="1.0" xmlns="http://www.w3.org/2000/svg"
 width="1050.000000pt" height="1050.000000pt" viewBox="0 0 1050.000000 1050.000000"
 preserveAspectRatio="xMidYMid meet">
<metadata>
Created by potrace 1.14, written by Peter Selinger 2001-2017
</metadata>
<g transform="translate(0.000000,1050.000000) scale(0.100000,-0.100000)"
fill="#000000" stroke="none">
<path d="M8125 10050 c-67 -10 -109 -15 -310 -40 -93 -11 -183 -22 -200 -25
-54 -7 -289 -36 -330 -40 -40 -4 -188 -23 -235 -30 -14 -2 -50 -6 -80 -10 -30
-3 -71 -8 -90 -10 -19 -3 -56 -7 -81 -10 -25 -3 -55 -7 -65 -9 -11 -2 -54 -7
-95 -11 -40 -4 -76 -8 -79 -10 -3 -2 -35 -6 -70 -9 -36 -3 -74 -8 -85 -10 -23
-4 -123 -17 -174 -22 -19 -2 -48 -5 -65 -8 -17 -3 -56 -8 -86 -11 -30 -3 -73
-8 -95 -11 -59 -9 -150 -20 -225 -29 -28 -3 -105 -13 -165 -20 -48 -6 -111
-15 -145 -20 -14 -2 -54 -7 -90 -10 -36 -3 -76 -8 -90 -10 -14 -2 -47 -6 -75
-10 -27 -3 -61 -8 -75 -10 -14 -2 -52 -6 -85 -10 -33 -3 -89 -10 -125 -15 -36
-5 -90 -11 -120 -15 -30 -3 -66 -8 -80 -10 -30 -5 -84 -11 -160 -20 -30 -4
-66 -8 -80 -10 -14 -2 -50 -6 -80 -10 -30 -4 -66 -8 -80 -10 -14 -2 -54 -7
-90 -10 -36 -4 -67 -8 -70 -10 -3 -1 -36 -6 -75 -9 -38 -4 -81 -9 -95 -11 -24
-4 -45 -7 -160 -20 -30 -4 -66 -8 -80 -10 -37 -6 -98 -13 -160 -20 -81 -10
-120 -15 -165 -20 -22 -3 -56 -8 -75 -10 -37 -5 -182 -23 -240 -30 -19 -3 -55
-7 -80 -10 -53 -6 -111 -13 -160 -20 -19 -3 -55 -8 -80 -10 -25 -3 -63 -8 -85
-11 -22 -2 -56 -7 -75 -9 -19 -2 -71 -9 -115 -15 -116 -15 -165 -21 -209 -25
-21 -3 -56 -7 -77 -10 -51 -7 -101 -13 -169 -20 -30 -3 -62 -8 -70 -10 -8 -2
-44 -7 -80 -10 -36 -4 -76 -8 -90 -10 -60 -9 -250 -33 -320 -40 -30 -3 -66 -8
-80 -10 -14 -2 -45 -6 -70 -9 -132 -16 -459 -57 -486 -61 -17 -2 -57 -7 -90
-10 -32 -3 -70 -8 -84 -10 -14 -3 -45 -7 -70 -10 -247 -29 -252 -30 -343 -78
-103 -54 -192 -175 -218 -298 -10 -46 -8 -166 5 -224 2 -11 7 -51 11 -88 3
-37 8 -78 11 -90 2 -12 6 -46 9 -77 3 -31 7 -65 9 -77 3 -12 8 -53 11 -90 4
-37 8 -75 10 -83 2 -8 7 -42 11 -75 3 -33 8 -68 10 -78 2 -10 6 -48 10 -85 3
-36 8 -75 10 -85 2 -11 6 -45 9 -76 4 -31 8 -67 11 -81 2 -14 6 -50 10 -80 3
-30 7 -66 10 -80 2 -14 6 -50 9 -80 3 -30 8 -66 10 -80 3 -14 7 -45 10 -70 3
-25 8 -63 10 -85 3 -22 8 -60 10 -85 3 -25 7 -61 10 -80 2 -19 9 -73 15 -120
6 -47 12 -98 15 -115 4 -28 19 -149 30 -240 17 -148 45 -370 49 -395 3 -14 7
-52 10 -85 4 -33 8 -71 10 -85 3 -14 7 -52 11 -85 7 -68 13 -114 20 -165 3
-19 7 -55 10 -80 3 -25 8 -63 10 -85 3 -22 7 -51 9 -65 3 -14 8 -52 11 -85 3
-33 8 -67 10 -75 2 -8 6 -46 10 -83 3 -37 8 -77 10 -87 2 -10 6 -45 10 -77 3
-32 8 -69 10 -83 2 -14 7 -50 10 -80 3 -30 8 -66 10 -80 4 -24 11 -80 21 -170
5 -51 13 -113 19 -150 4 -26 14 -110 21 -170 3 -32 7 -62 19 -155 2 -16 9 -73
15 -125 6 -52 13 -106 15 -120 5 -29 43 -343 51 -415 3 -27 7 -57 9 -65 2 -8
7 -44 10 -80 3 -36 8 -76 10 -90 3 -14 7 -45 10 -70 3 -25 10 -79 15 -120 6
-41 12 -97 15 -124 3 -27 7 -63 10 -80 2 -17 7 -53 10 -81 3 -27 7 -61 10 -75
2 -14 7 -50 10 -80 3 -30 7 -66 9 -80 5 -27 13 -90 21 -160 14 -116 24 -202
30 -246 2 -17 7 -57 10 -90 3 -32 10 -84 15 -114 5 -30 12 -84 16 -120 3 -36
8 -73 9 -82 2 -9 6 -43 10 -75 3 -33 8 -70 10 -84 2 -13 7 -46 10 -74 10 -92
16 -140 21 -175 3 -19 7 -53 9 -75 8 -69 16 -129 20 -155 2 -14 6 -51 10 -82
20 -186 53 -269 145 -359 117 -114 242 -145 465 -115 88 12 131 18 155 21 80
9 228 27 249 30 25 4 68 10 156 21 28 3 64 7 80 10 17 2 50 6 75 9 25 3 79 10
120 15 41 5 100 12 130 15 30 3 66 8 80 10 14 2 49 7 79 10 30 4 62 8 72 10
10 2 46 6 81 10 35 3 74 8 88 10 14 2 50 6 80 10 30 4 66 8 80 10 14 2 122 15
240 30 266 32 289 35 320 40 14 2 50 7 80 10 30 3 71 8 90 10 19 3 55 7 79 10
23 3 55 7 70 9 14 3 55 8 91 11 36 4 72 8 81 10 8 2 42 6 75 9 32 3 70 8 84
11 14 2 48 7 75 10 28 3 104 12 170 20 117 15 143 18 235 30 25 3 61 8 80 11
19 2 55 7 80 9 25 2 61 7 80 10 19 3 58 7 85 10 28 3 61 8 75 10 14 3 50 7 80
10 30 3 66 8 80 10 14 2 45 6 70 9 95 11 177 21 250 31 19 3 53 7 75 9 122 14
152 18 175 21 39 6 100 14 160 20 30 4 105 13 165 21 61 8 137 17 170 20 33 3
62 8 64 10 2 2 24 -8 50 -23 201 -112 553 -225 826 -264 177 -25 472 -33 650
-17 83 8 263 36 274 42 4 3 25 7 48 10 22 4 72 16 109 27 38 10 76 21 84 23
135 34 421 158 566 246 36 22 68 40 70 40 10 0 275 189 294 210 3 3 23 20 45
39 304 257 572 624 730 1001 53 125 119 333 141 443 2 10 5 26 8 35 10 33 32
172 41 252 3 30 8 78 11 105 7 68 7 325 -1 405 -45 506 -205 950 -488 1350
-136 192 -338 408 -508 541 -24 18 -49 38 -56 44 -7 5 -18 15 -25 21 -7 5 -56
38 -108 73 -104 69 -101 63 -115 191 -3 30 -8 69 -10 85 -2 17 -7 55 -10 85
-3 30 -8 66 -10 80 -2 14 -7 50 -10 80 -3 30 -8 66 -10 80 -2 14 -6 48 -10 75
-3 28 -7 66 -10 85 -2 19 -9 73 -15 120 -6 47 -13 101 -15 120 -6 46 -12 91
-20 165 -4 33 -9 67 -10 75 -2 8 -6 44 -10 80 -4 36 -9 73 -10 82 -2 9 -7 48
-10 85 -4 37 -8 75 -10 83 -2 8 -7 42 -10 75 -3 33 -8 71 -10 85 -3 14 -7 48
-10 75 -3 28 -8 61 -10 75 -3 14 -7 52 -10 85 -3 33 -8 71 -11 85 -4 24 -8 60
-19 165 -3 28 -8 61 -10 75 -3 14 -7 48 -10 75 -3 28 -8 68 -11 90 -5 43 -9
70 -18 150 -4 28 -9 68 -11 90 -3 22 -8 58 -10 80 -3 22 -9 74 -15 115 -5 41
-12 98 -15 125 -3 28 -8 64 -10 80 -5 36 -22 169 -30 244 -4 30 -8 62 -10 72
-2 10 -6 44 -10 76 -12 118 -16 148 -20 163 -2 8 -7 44 -10 80 -4 36 -8 76
-10 90 -2 14 -7 50 -10 80 -15 130 -23 163 -55 228 -93 189 -279 277 -515 242z
m-580 -933 c22 -4 65 -9 95 -13 30 -3 56 -7 56 -7 1 -1 5 -36 8 -77 9 -97 15
-158 21 -220 4 -37 2 -50 -7 -51 -7 0 -22 -2 -33 -4 -11 -2 -41 -6 -67 -9
l-48 -5 -11 42 c-6 23 -15 51 -19 62 -4 11 -16 47 -26 80 -17 53 -23 61 -54
72 -73 25 -219 10 -285 -28 -74 -44 -108 -147 -78 -236 29 -84 111 -137 323
-211 147 -51 247 -93 302 -125 64 -37 134 -111 165 -176 25 -49 28 -67 28
-151 0 -119 -26 -193 -93 -270 -75 -86 -201 -156 -318 -176 -16 -3 -40 -7 -54
-10 -52 -12 -239 -11 -325 1 -141 20 -180 26 -184 30 -2 3 -5 17 -7 32 -3 27
-5 52 -19 250 l-6 81 58 7 c32 3 68 8 80 11 20 4 24 -4 48 -83 51 -173 48
-167 91 -187 27 -13 65 -20 122 -21 203 -6 317 66 327 206 4 68 -10 114 -51
159 -32 35 -142 97 -204 114 -14 4 -34 11 -45 16 -11 5 -51 19 -90 31 -87 27
-164 62 -233 106 -97 61 -140 116 -172 218 -85 276 103 508 440 542 30 3 56 6
58 8 5 4 164 -2 207 -8z m-2510 -339 c7 -6 11 -56 20 -213 4 -66 9 -128 10
-137 4 -20 -8 -24 -90 -33 -33 -3 -70 -9 -81 -11 -27 -7 -27 -7 -73 128 -46
135 -54 142 -180 144 -320 7 -470 -218 -429 -646 16 -161 74 -352 136 -451 36
-55 95 -115 136 -136 111 -58 260 -45 394 33 l44 26 -6 67 c-4 36 -8 77 -11
91 -5 34 -15 116 -21 170 -6 59 -11 88 -18 99 -3 5 -51 7 -106 5 -55 -3 -100
-1 -101 3 0 5 -2 17 -4 28 -7 33 -9 94 -4 99 2 2 36 7 74 10 39 4 81 9 95 11
14 2 50 7 80 10 30 3 62 8 70 10 8 2 42 6 75 10 82 8 135 15 167 21 32 6 34 4
42 -72 l7 -60 -51 -13 -51 -13 6 -67 c4 -36 8 -73 10 -81 2 -8 7 -40 10 -70 8
-75 12 -111 25 -209 12 -90 9 -111 -15 -111 -8 0 -70 -22 -137 -49 -219 -86
-357 -119 -504 -119 -401 0 -677 323 -678 793 0 147 21 246 74 353 109 218
333 354 635 386 55 5 444 1 450 -6z m-2961 -360 c9 -49 12 -64 36 -181 13 -59
21 -109 19 -112 -2 -2 -28 -6 -58 -10 -29 -3 -58 -7 -64 -8 -6 -1 -31 40 -56
92 l-46 93 -90 -7 c-49 -4 -108 -8 -130 -10 -200 -15 -220 -18 -210 -35 3 -4
7 -36 10 -71 3 -35 8 -71 10 -79 2 -8 7 -40 11 -70 3 -30 7 -66 9 -80 2 -14 6
-50 10 -80 4 -30 8 -64 10 -75 1 -11 3 -30 4 -43 0 -13 4 -21 9 -19 4 3 30 8
57 12 28 4 57 8 65 9 8 1 44 6 78 11 35 4 65 13 67 19 3 6 6 41 8 77 2 36 6
70 10 75 3 5 21 11 39 13 92 7 81 16 93 -80 3 -25 7 -54 9 -65 2 -10 7 -50 11
-87 3 -37 8 -78 11 -90 2 -12 7 -51 10 -87 l6 -65 -43 -3 c-24 -1 -53 -4 -63
-5 -16 -2 -24 13 -45 78 -25 77 -27 80 -56 79 -44 -2 -154 -13 -203 -20 l-43
-6 6 -52 c11 -80 14 -107 20 -161 7 -59 15 -120 20 -155 6 -39 18 -153 19
-173 0 -14 6 -16 36 -10 19 3 127 22 239 42 l205 36 41 130 41 130 50 -3 c27
-2 58 -5 69 -7 11 -2 24 -4 28 -4 9 -1 6 -347 -3 -361 -6 -10 -38 -16 -120
-25 -30 -3 -66 -7 -80 -10 -14 -2 -47 -7 -75 -10 -52 -5 -106 -12 -177 -20
-24 -3 -61 -8 -83 -10 -22 -3 -56 -7 -75 -10 -19 -3 -54 -7 -77 -10 -24 -3
-61 -7 -83 -10 -22 -3 -58 -7 -80 -10 -22 -3 -59 -7 -82 -11 -24 -3 -60 -7
-80 -10 -136 -16 -123 -22 -132 59 -3 26 -1 48 5 48 5 1 12 2 17 3 4 1 33 8
66 16 l58 14 -6 70 c-3 39 -8 80 -10 91 -2 11 -7 47 -11 80 -10 89 -13 115
-35 290 -11 88 -23 180 -26 205 -3 25 -7 59 -9 75 -5 35 -21 167 -30 240 -9
83 -17 130 -20 134 -3 3 -37 5 -141 10 -19 1 -22 9 -27 59 -2 31 -3 58 -2 60
4 4 34 9 105 17 36 3 76 8 90 10 14 2 50 6 80 10 30 4 66 8 80 10 51 8 106 15
150 20 65 7 131 15 165 19 17 3 53 7 80 11 28 3 64 8 80 10 17 2 57 7 90 10
33 4 61 8 62 9 1 1 18 3 36 4 32 2 35 0 41 -30z m6723 -1380 c0 -14 3 -33 34
-278 32 -252 34 -269 44 -360 4 -30 8 -66 10 -80 3 -23 7 -52 20 -157 3 -24 8
-62 10 -85 3 -24 8 -54 10 -68 2 -14 6 -51 10 -82 l6 -57 -83 35 c-157 68
-368 138 -483 160 -11 2 -40 8 -65 13 -84 19 -223 39 -325 47 -101 8 -341 8
-416 0 -35 -4 -84 -9 -109 -12 -25 -2 -56 -6 -70 -9 -14 -3 -41 -7 -60 -10
-278 -37 -664 -180 -937 -346 -36 -21 -63 -33 -64 -26 0 7 -2 21 -4 32 -3 11
-7 45 -10 75 -4 30 -8 66 -10 80 -2 14 -7 51 -10 83 -4 32 -8 66 -10 76 -2 10
-6 42 -10 72 -3 30 -10 88 -15 129 -15 117 -19 151 -25 205 -4 28 -12 95 -19
150 -8 55 -13 101 -12 102 1 2 141 20 216 28 30 3 66 8 80 10 14 3 48 7 75 10
28 3 60 7 73 10 12 2 55 7 94 10 40 4 75 8 78 10 3 1 36 6 73 10 37 3 76 8 85
10 9 1 46 6 82 10 36 4 72 8 80 10 8 1 42 6 75 9 33 4 71 9 85 11 39 5 132 17
160 20 38 4 131 15 165 20 17 3 86 12 155 20 69 9 141 18 160 20 19 3 55 7 80
10 25 3 59 7 75 10 17 2 55 6 85 10 62 7 123 14 160 20 14 2 50 6 80 10 30 3
116 14 190 23 186 24 187 24 187 10z m-2802 -358 c1 -8 5 -40 9 -70 9 -78 36
-288 41 -330 8 -59 16 -123 21 -169 2 -24 16 -132 30 -240 13 -108 27 -221 30
-251 l5 -55 -44 -33 c-190 -140 -431 -412 -592 -667 -106 -168 -255 -499 -294
-652 -6 -21 -19 -73 -29 -116 -22 -88 -23 -89 -54 -92 -74 -9 -127 -16 -158
-20 -19 -2 -60 -7 -90 -11 -30 -4 -64 -8 -75 -10 -11 -2 -48 -6 -83 -10 -35
-3 -72 -7 -84 -9 -11 -3 -46 -7 -77 -10 -31 -3 -65 -8 -76 -10 -11 -2 -47 -7
-80 -10 -33 -4 -71 -8 -85 -10 -14 -2 -52 -7 -85 -11 -33 -3 -67 -8 -75 -9 -9
-2 -43 -6 -75 -10 -33 -4 -71 -8 -85 -10 -14 -2 -47 -7 -75 -10 -27 -3 -85
-11 -129 -16 -43 -6 -82 -7 -86 -2 -4 4 -11 35 -14 68 -3 33 -8 71 -10 85 -6
38 -15 109 -21 173 -4 32 -8 67 -10 79 -3 11 -7 46 -10 77 -3 31 -8 72 -11 91
-2 19 -7 53 -9 75 -6 44 -14 106 -20 145 -2 14 -7 52 -10 85 -3 33 -8 71 -10
85 -2 14 -7 50 -10 80 -4 30 -9 71 -11 90 -11 84 -14 108 -19 155 -6 56 -14
117 -20 155 -2 14 -7 50 -10 80 -3 30 -7 66 -10 80 -2 14 -7 48 -10 75 -5 47
-21 182 -30 250 -12 95 -16 124 -20 160 -3 22 -16 132 -30 244 -14 112 -24
205 -23 207 2 2 28 6 58 9 30 4 64 8 75 10 11 1 45 5 75 9 30 4 66 9 80 11 14
2 54 7 90 10 36 3 76 8 90 10 66 10 159 22 235 30 28 3 68 8 90 11 22 3 54 8
70 10 17 2 53 6 80 9 28 3 59 7 70 9 11 2 49 7 85 11 36 3 72 8 80 10 8 2 49
7 90 10 41 4 78 9 81 11 3 1 37 6 75 9 38 3 76 8 84 10 8 2 40 7 70 10 30 3
71 7 90 10 19 2 91 11 160 20 196 24 201 25 275 35 39 5 95 12 125 15 30 4 85
10 121 15 37 6 98 13 135 16 38 4 71 8 74 11 10 10 53 -3 55 -17z m-2824 -342
c2 -27 6 -65 12 -108 4 -25 9 -67 12 -95 3 -27 10 -81 15 -120 5 -38 12 -92
15 -120 7 -61 13 -109 20 -155 3 -19 7 -57 10 -84 2 -27 9 -83 15 -125 5 -42
12 -94 14 -116 3 -22 12 -95 21 -162 16 -132 41 -337 51 -417 3 -27 7 -56 9
-65 1 -9 6 -45 10 -81 4 -36 8 -72 10 -80 1 -8 6 -42 9 -75 4 -33 9 -71 11
-85 2 -14 6 -50 10 -81 3 -31 7 -65 9 -75 2 -11 7 -50 11 -89 4 -38 8 -77 10
-85 1 -8 6 -40 9 -70 4 -30 12 -99 19 -152 13 -96 12 -98 -8 -99 -11 0 -27 -2
-35 -3 -8 -2 -44 -7 -80 -11 -36 -4 -72 -8 -81 -10 -8 -1 -42 -6 -75 -9 -32
-3 -75 -8 -94 -11 -19 -3 -55 -7 -80 -10 -25 -4 -56 -8 -70 -10 -26 -4 -96
-12 -167 -20 -24 -3 -61 -7 -83 -10 -22 -3 -59 -7 -83 -10 -43 -5 -94 -12
-157 -20 -19 -3 -55 -7 -80 -10 -25 -3 -61 -8 -80 -11 -19 -2 -55 -7 -79 -9
-24 -2 -62 -7 -85 -10 -23 -3 -58 -8 -78 -10 -21 -3 -55 -7 -77 -10 -21 -3
-58 -8 -81 -10 -24 -3 -78 -9 -119 -15 -86 -11 -152 -20 -196 -25 -111 -12
-153 -17 -175 -21 -14 -2 -50 -6 -80 -10 -30 -3 -66 -7 -80 -9 -14 -3 -50 -7
-80 -10 -30 -3 -66 -8 -80 -10 -14 -3 -47 -7 -75 -10 -27 -3 -67 -8 -87 -11
-32 -5 -38 -3 -39 13 -2 29 -12 118 -24 203 -3 22 -13 103 -20 170 -10 83 -16
129 -20 155 -2 17 -7 53 -10 80 -3 28 -8 64 -10 80 -2 17 -7 53 -10 80 -7 56
-23 192 -30 245 -2 19 -11 91 -20 160 -19 159 -19 153 -55 447 -17 136 -33
266 -36 288 -5 47 -14 110 -19 145 -2 14 -6 50 -9 80 -3 30 -8 71 -11 90 -2
19 -7 59 -10 88 -4 29 -8 63 -11 75 -12 64 -15 147 -5 148 6 1 19 2 29 3 21 2
128 16 162 21 14 2 45 6 70 9 25 3 99 12 165 21 66 8 143 17 170 20 28 3 61 8
75 10 14 3 52 7 85 10 33 3 67 8 75 10 8 2 44 7 80 10 36 4 73 9 82 10 9 2 48
7 85 10 37 4 75 8 83 10 8 2 40 6 70 10 30 3 73 8 95 11 78 11 91 12 145 19
104 12 172 20 285 34 44 6 103 13 130 16 28 3 61 8 75 10 14 3 52 7 85 11 33
3 68 8 78 10 10 2 44 6 75 9 31 4 120 15 197 25 175 22 185 23 186 8z m5479
-1158 c256 -80 433 -339 465 -683 4 -38 8 -177 9 -310 3 -220 5 -248 25 -307
34 -99 80 -155 159 -195 53 -27 119 -44 202 -52 30 -3 57 -7 59 -9 6 -5 8
-312 3 -335 -3 -12 -21 -18 -75 -23 -174 -15 -278 -78 -332 -201 -34 -77 -38
-114 -40 -352 -3 -325 -13 -399 -72 -558 -100 -269 -301 -438 -546 -460 -75
-7 -66 -19 -96 125 -36 167 -36 156 5 158 56 4 105 36 160 105 20 24 52 104
63 159 6 29 14 64 17 78 3 14 7 111 10 215 10 469 12 483 76 612 51 103 136
193 237 250 102 58 99 50 32 85 -159 82 -272 229 -319 416 -18 69 -21 116 -22
329 -3 364 -7 434 -36 521 -20 59 -39 89 -78 125 -37 35 -66 47 -126 54 -25 3
-46 6 -48 8 -7 6 53 262 64 271 17 14 116 1 204 -26z m-1386 8 c3 -13 15 -68
26 -123 11 -55 23 -108 26 -117 4 -15 -1 -18 -27 -18 -91 0 -171 -55 -212
-147 -42 -93 -46 -144 -51 -528 -4 -333 -8 -358 -74 -495 -48 -101 -157 -210
-264 -265 -43 -22 -78 -43 -78 -47 0 -4 10 -10 23 -13 12 -4 51 -24 87 -45
167 -98 273 -258 299 -457 5 -31 9 -159 9 -283 2 -253 6 -317 29 -409 40 -164
112 -247 228 -265 17 -2 31 -5 31 -5 1 -1 -11 -62 -27 -138 -16 -75 -29 -138
-29 -141 0 -9 -126 8 -180 24 -54 16 -159 65 -187 87 -114 89 -203 215 -256
364 -50 139 -60 210 -62 478 -1 138 -6 273 -9 300 -9 62 -45 153 -77 193 -56
69 -163 117 -289 128 -36 4 -68 8 -71 10 -3 2 -6 82 -6 179 l0 175 26 1 c72 2
198 27 207 41 3 4 12 8 21 8 25 0 103 69 133 117 51 80 61 151 65 454 2 229 6
289 23 364 61 271 181 442 380 538 39 20 72 34 72 32 0 -1 19 3 42 10 23 6 70
13 105 14 58 2 63 0 67 -21z m-2161 -1482 c-15 -119 -8 -526 11 -621 2 -11 7
-40 10 -65 62 -416 250 -852 522 -1207 89 -116 105 -134 239 -268 126 -126
145 -143 263 -232 40 -31 71 -57 70 -58 -3 -3 -83 -14 -148 -21 -43 -4 -97
-11 -150 -19 -14 -2 -52 -6 -85 -10 -33 -3 -67 -7 -75 -10 -8 -2 -46 -6 -83
-10 -37 -3 -76 -8 -85 -10 -9 -1 -46 -6 -82 -10 -36 -4 -73 -9 -82 -10 -9 -2
-43 -6 -75 -10 -33 -3 -70 -7 -84 -10 -13 -2 -49 -6 -79 -9 -30 -3 -64 -8 -75
-10 -11 -2 -47 -7 -80 -10 -33 -3 -76 -8 -95 -11 -19 -3 -55 -7 -80 -10 -25
-3 -56 -8 -70 -10 -14 -2 -47 -7 -75 -10 -55 -6 -123 -14 -170 -20 -16 -2 -53
-7 -81 -10 -28 -3 -59 -7 -70 -9 -10 -2 -48 -7 -84 -11 -36 -3 -76 -8 -90 -10
-14 -2 -47 -6 -75 -10 -27 -3 -60 -7 -72 -9 -13 -3 -24 0 -24 7 -2 19 -6 49
-12 92 -3 22 -9 63 -12 90 -3 28 -8 61 -10 75 -2 14 -7 52 -10 85 -9 76 -13
111 -19 155 -2 19 -7 58 -10 85 -8 59 -15 116 -21 167 -3 21 -7 55 -10 75 -8
68 -15 117 -20 168 -3 28 -8 64 -10 80 -2 17 -7 53 -10 80 -3 28 -8 64 -10 80
-7 52 -20 159 -30 245 -5 44 -9 76 -19 150 -3 19 -8 58 -11 85 -6 49 -21 172
-30 248 -3 20 -7 54 -10 75 -4 35 -31 250 -41 337 -3 22 -9 69 -14 105 -5 36
-10 79 -10 96 0 31 1 32 58 39 31 3 68 8 82 10 14 2 50 6 80 9 30 4 64 8 75
10 11 2 49 7 85 11 67 7 85 9 155 18 22 3 60 8 85 11 25 3 63 8 85 11 22 2 60
7 85 10 25 3 61 8 81 10 20 3 54 7 75 10 43 5 110 13 164 20 58 8 123 16 169
21 25 2 46 6 48 7 1 2 14 3 28 3 25 0 26 0 18 -60z m-1587 -161 c2 -11 6 -42
10 -70 3 -27 8 -63 10 -80 2 -16 6 -55 9 -85 4 -30 8 -66 10 -80 2 -14 7 -44
10 -67 3 -24 7 -62 11 -85 3 -24 7 -59 9 -78 2 -19 6 -53 9 -75 6 -41 12 -95
20 -162 3 -21 12 -96 21 -168 8 -71 18 -148 20 -170 3 -22 7 -53 10 -70 3 -16
7 -48 9 -70 8 -69 37 -309 41 -340 3 -16 12 -88 20 -160 9 -71 18 -143 20
-160 3 -26 18 -139 41 -325 3 -25 7 -61 10 -80 2 -19 6 -48 8 -65 5 -30 17
-142 20 -180 0 -11 -3 -20 -9 -20 -20 -2 -150 -17 -167 -20 -9 -2 -44 -6 -77
-10 -33 -3 -69 -8 -80 -10 -11 -2 -44 -6 -73 -9 -29 -4 -69 -8 -88 -11 -113
-14 -137 -17 -160 -20 -14 -2 -50 -7 -80 -10 -30 -3 -66 -8 -80 -10 -30 -4
-124 -16 -160 -20 -30 -3 -125 -15 -160 -20 -14 -2 -54 -7 -90 -10 -36 -4 -72
-9 -81 -10 -9 -2 -40 -6 -70 -10 -68 -8 -95 -11 -249 -30 -69 -9 -143 -18
-165 -20 -33 -4 -277 -35 -388 -50 -215 -28 -264 -26 -325 12 -82 50 -107 102
-126 263 -3 25 -8 63 -11 85 -5 36 -57 464 -71 575 -3 25 -7 54 -9 65 -2 11
-7 49 -10 85 -3 36 -8 72 -10 80 -2 8 -6 42 -10 75 -6 62 -11 105 -20 165 -2
19 -8 62 -11 95 -3 33 -8 68 -10 78 -2 10 -6 45 -9 78 -4 33 -8 69 -10 79 -2
10 -6 46 -10 79 -3 33 -8 69 -10 80 -2 11 -6 44 -10 73 -3 29 -7 65 -9 81 -2
15 -7 55 -10 90 -4 34 -11 87 -16 117 -5 30 -11 82 -15 115 -3 33 -8 77 -11
97 -14 101 -14 98 9 99 12 0 29 2 38 4 15 3 107 14 159 20 36 4 131 16 160 20
14 2 50 6 80 10 30 3 66 8 80 10 14 3 50 7 80 10 30 3 66 8 80 10 14 2 50 7
80 10 30 3 66 8 80 10 14 2 50 7 80 10 30 3 66 8 80 10 14 2 45 6 70 9 92 11
165 20 250 31 19 2 60 7 90 10 30 3 66 8 80 10 14 2 50 7 80 10 30 4 66 8 80
10 14 2 158 20 320 40 162 20 309 38 325 40 17 3 57 7 90 11 33 4 80 10 105
14 64 11 83 8 86 -15z"/>
</g>
</svg>
