<?xml version="1.0" standalone="no"?>
<!DOCTYPE svg PUBLIC "-//W3C//DTD SVG 20010904//EN"
 "http://www.w3.org/TR/2001/REC-SVG-20010904/DTD/svg10.dtd">
<svg version="1.0" xmlns="http://www.w3.org/2000/svg"
 width="453.000000pt" height="453.000000pt" viewBox="0 0 453.000000 453.000000"
 preserveAspectRatio="xMidYMid meet">
<metadata>
Created by potrace 1.14, written by Peter Selinger 2001-2017
</metadata>
<g transform="translate(0.000000,453.000000) scale(0.100000,-0.100000)"
fill="#000000" stroke="none">
<path d="M306 4294 c-14 -14 -16 -78 -16 -560 l0 -544 1890 0 1890 0 0 550 c0
533 -1 550 -19 560 -13 7 -615 10 -1875 10 -1673 0 -1856 -2 -1870 -16z"/>
<path d="M3295 2033 c-412 -65 -736 -359 -848 -768 -18 -67 -21 -107 -21 -245
0 -141 3 -177 23 -249 100 -371 373 -642 746 -744 67 -18 107 -21 245 -21 140
0 178 3 250 23 101 27 242 92 331 152 144 96 294 280 360 441 60 147 73 217
73 398 0 203 -17 279 -104 455 -136 274 -363 457 -665 537 -59 15 -117 22
-220 24 -77 1 -153 0 -170 -3z"/>
</g>
</svg>
